<?xml version="1.0" encoding="UTF-8" standalone="no" ?>
<!DOCTYPE svg PUBLIC "-//W3C//DTD SVG 1.1//EN" "http://www.w3.org/Graphics/SVG/1.1/DTD/svg11.dtd">
<svg xmlns="http://www.w3.org/2000/svg" xmlns:xlink="http://www.w3.org/1999/xlink" version="1.1" width="1080" height="1080" viewBox="0 0 1080 1080" xml:space="preserve">
<desc>Created with Fabric.js 5.2.4</desc>
<defs>
</defs>
<g transform="matrix(1 0 0 1 540 540)" id="0783b41b-528c-4def-9701-30431d4279b5"  >
<rect style="stroke: none; stroke-width: 1; stroke-dasharray: none; stroke-linecap: butt; stroke-dashoffset: 0; stroke-linejoin: miter; stroke-miterlimit: 4; fill: rgb(255,255,255); fill-rule: nonzero; opacity: 1; visibility: hidden;" vector-effect="non-scaling-stroke"  x="-540" y="-540" rx="0" ry="0" width="1080" height="1080" />
</g>
<g transform="matrix(1 0 0 1 540 540)" id="38809073-4bfd-4603-9117-40539368420a"  >
</g>
<g transform="matrix(1 0 0 1 540 540)"  >
<g style="" vector-effect="non-scaling-stroke"   >
		<g transform="matrix(1 0 0 1 0 0)"  >
<rect style="stroke: none; stroke-width: 1; stroke-dasharray: none; stroke-linecap: butt; stroke-dashoffset: 0; stroke-linejoin: miter; stroke-miterlimit: 4; fill: rgb(0,0,0); fill-rule: nonzero; opacity: 1; visibility: hidden;" vector-effect="non-scaling-stroke"  x="-540" y="-540" rx="0" ry="0" width="1080" height="1080" />
</g>
		<g transform="matrix(1 0 0 1 0 -71.99)"  >
<path style="stroke: none; stroke-width: 1; stroke-dasharray: none; stroke-linecap: butt; stroke-dashoffset: 0; stroke-linejoin: miter; stroke-miterlimit: 4; fill: rgb(0,0,0); fill-rule: nonzero; opacity: 1;" vector-effect="non-scaling-stroke"  transform=" translate(-256.02, -183.97)" d="M 183 352 C 161.16 351.48 144 333.1 144 311.26 L 144 277.19 C 143.99728059293838 273.54423548288526 141.52999755862257 270.3614403686179 138 269.45 C 104.25 260.59999999999997 80 229.73999999999998 80 192 C 80.0536562857659 153.13264146794734 107.98913983743424 119.90682566075708 146.26999999999992 113.18000000000004 C 149.7374643940825 112.60480558506995 152.42333726518754 109.83373130868817 152.89 106.35000000000001 C 159.7031302984086 54.606959620008965 203.81033653846313 15.926741140641838 256 15.926741140641838 C 308.18966346153684 15.926741140641838 352.2968697015914 54.606959620008965 359.11 106.35000000000001 C 359.57666273481243 109.83373130868817 362.2625356059175 112.60480558506997 365.73 113.18 C 406.6450153270856 120.2862089064722 435.3198079852823 157.5170906164051 431.74308979309046 198.89031591020733 C 428.16637160089863 240.26354120400958 393.5275359865086 272.02095536462497 352 272 C 334.6352492796739 271.91745581203446 317.847433006476 265.7577955103195 304.55 254.59 C 301.68440946623775 252.22526545171863 297.56118250674075 252.16707474866124 294.63 254.45000000000002 C 283.624868983747 263.1485088988967 270.0274815336539 267.9179782219296 256 268 C 248.62191002386032 267.94443437896956 241.28651558210183 266.8744089512268 234.2 264.82 C 231.7863324020116 264.1296233555305 229.18857103183916 264.6122956242909 227.18398239432167 266.1235982343409 C 225.1793937568042 267.6349008443908 224.00048758350954 269.99953969418544 224 272.51 L 224 312 C 224.00337060747435 322.7842156780284 219.6521033235355 333.11290453595484 211.932956036764 340.6437799376831 C 204.21380874999252 348.1746553394114 193.78084559729584 352.26960593186107 183 352 z" stroke-linecap="round" />
</g>
		<g transform="matrix(1 0 0 1 16.41 137.31)"  >
<path style="stroke: none; stroke-width: 1; stroke-dasharray: none; stroke-linecap: butt; stroke-dashoffset: 0; stroke-linejoin: miter; stroke-miterlimit: 4; fill: rgb(0,0,0); fill-rule: nonzero; opacity: 1;" vector-effect="non-scaling-stroke"  transform=" translate(-272.43, -393.27)" d="M 263.39 299.7 C 259.2459549889212 300.01676059349495 256.0346679347299 303.45401101279856 256 307.61 L 256 312 C 255.95836263540664 343.53894766124176 235.42541258337872 371.39149541380516 205.31 380.76 C 203.16175283831734 381.44770745107246 201.40365161191176 383.0103569015285 200.46868367016145 385.06309710765237 C 199.53371572841115 387.11583731377624 199.50877357703786 389.46789409803637 200.4 391.53999999999996 L 241.31 486.34 C 243.840294277207 492.20289239174997 249.61439929890741 495.99988725285453 256 496 C 262.3951677657261 495.99301120376686 268.17190500737036 492.1785557072421 270.69 486.3 L 344.47 314.15 C 345.44972044076286 311.8657569725507 345.31209176693545 309.25590126389875 344.09755782699807 307.08737050339766 C 342.8830238870607 304.9188397428965 340.72956460258223 303.43799485502484 338.27000000000004 303.08 C 325.70808369260806 301.38774600147906 313.55003549909605 297.4626268214567 302.37000000000006 291.49 C 300.156211257247 290.3088749943209 297.516517907006 290.2348303000645 295.24000000000007 291.29 C 285.194080463294 295.9266738107357 274.41540328826807 298.7727860569513 263.39000000000004 299.70000000000005 z" stroke-linecap="round" />
</g>
</g>
</g>
</svg>